<svg xmlns="http://www.w3.org/2000/svg" width="32" height="32" fill="currentColor" class="bi bi-envelope" viewBox="0 0 32 32">
<circle cx="16" cy="16" r="16" fill="#151A26"/>
  <path d="M0 4a2 2 0 0 1 2-2h12a2 2 0 0 1 2 2v8a2 2 0 0 1-2 2H2a2 2 0 0 1-2-2V4Zm2-1a1 1 0 0 0-1 1v.217l7 4.2 7-4.2V4a1 1 0 0 0-1-1H2Zm13 2.383-4.708 2.825L15 11.105V5.383Zm-.034 6.876-5.64-3.471L8 9.583l-1.326-.795-5.64 3.47A1 1 0 0 0 2 13h12a1 1 0 0 0 .966-.741ZM1 11.105l4.708-2.897L1 5.383v5.722Z" stroke="#01FB34" stroke-width="2" stroke-linecap="round" stroke-linejoin="round"/>
  <path d="M16 11.5V16L19 17.5" stroke="#01FB34" stroke-width="2" stroke-linecap="round" stroke-linejoin="round"/>
</svg>